<?xml version="1.0" encoding="UTF-8"?>
<svg id="Layer_2" data-name="Layer 2" xmlns="http://www.w3.org/2000/svg" viewBox="0 0 129.98 195.77">
  <defs>
    <style>
      .cls-1 {
        fill: #df6f08;
      }
    </style>
  </defs>
  <g id="Layer_1-2" data-name="Layer 1">
    <g>
      <path class="cls-1" d="M44.88,.08s6.64,1.36,6.57,7.22S19.13,99.23,126.68,145.23c0,0,9.64,11.5-4.04,13.63,0,0-108.15-31.79-87.19-148.03,0,0-.65-8.94,9.43-10.75Z"/>
      <path class="cls-1" d="M36.96,142.3s31.58,44.13,79.57,53.03c0,0,14.26,3.9,7.36-11.6,0,0-51.78-14.85-72.2-50.31,0,0-13.41-9.15-14.73,8.87Z"/>
      <path class="cls-1" d="M9.89,93.72s2.95,15.35,10.17,27.07c0,0,12.42,9.71,12.7-5.48,0,0-5.64-10.11-7.72-22.73,0,0-8.76-10.99-15.14,1.15Z"/>
      <path class="cls-1" d="M.25,47.75s-1.37,15.57,2.35,28.82c0,0,9.28,12.75,13.72-1.79,0,0-2.65-11.27-1.19-23.98,0,0-5.41-12.98-14.88-3.05Z"/>
      <path class="cls-1" d="M5.04,2.28S.27,17.17,.99,30.91c0,0,6.25,14.48,13.77,1.27,0,0-.11-11.57,4.11-23.65,0,0-2.42-13.85-13.84-6.25Z"/>
    </g>
  </g>
</svg>