<?xml version="1.0" encoding="UTF-8"?>
<svg id="Layer_2" data-name="Layer 2" xmlns="http://www.w3.org/2000/svg" viewBox="0 0 215.47 215.54">
  <defs>
    <style>
      .cls-1 {
        fill: #fea411;
      }
    </style>
  </defs>
  <g id="Layer_1-2" data-name="Layer 1">
    <path class="cls-1" d="M0,123.6v-31.69c4.53-1.26,9.11-2.54,13.69-3.82,3.32-.93,6.66-1.77,9.94-2.84,.79-.26,1.62-1.1,1.96-1.88,2.38-5.46,4.68-10.95,6.88-16.48,.31-.78,.27-2-.13-2.72-3.57-6.47-7.21-12.92-10.95-19.29-.88-1.5-.86-2.4,.42-3.65,6.55-6.41,13.03-12.89,19.45-19.43,1.2-1.22,2.03-1.2,3.43-.39,6.39,3.73,12.82,7.38,19.3,10.94,.78,.43,2.09,.47,2.93,.13,5.38-2.14,10.67-4.5,16.05-6.62,1.31-.52,2.03-1.06,2.41-2.48,1.8-6.82,3.74-13.61,5.64-20.41,.27-.96,.57-1.9,.89-2.98C102.08,0,112.17-.03,122.25,.1c.65,0,1.62,1.23,1.86,2.05,2.02,6.94,3.96,13.9,5.81,20.88,.41,1.53,1.08,2.3,2.64,2.9,5.4,2.08,10.67,4.49,16.04,6.62,.83,.33,2.13,.18,2.93-.26,6.47-3.57,12.9-7.24,19.29-10.94,1.29-.75,2.09-.77,3.23,.39,6.47,6.6,13.02,13.14,19.62,19.61,1.22,1.19,1.2,2.05,.4,3.43-3.69,6.31-7.33,12.65-10.84,19.07-.49,.9-.5,2.41-.11,3.4,2.01,5.16,4.34,10.19,6.29,15.37,.64,1.71,1.48,2.56,3.19,3.01,6.82,1.8,13.6,3.79,20.43,5.56,1.74,.45,2.46,1.05,2.43,2.99-.11,9.08-.1,18.17,0,27.25,.02,1.77-.55,2.47-2.23,2.91-6.99,1.83-13.93,3.84-20.91,5.7-1.44,.38-2.19,1.05-2.75,2.49-2.06,5.32-4.4,10.52-6.46,15.84-.38,.98-.34,2.48,.15,3.39,3.51,6.41,7.14,12.76,10.83,19.07,.82,1.4,.77,2.24-.43,3.42-7.02,6.87-13.95,13.85-21.04,20.92-5.79-3.28-11.72-6.29-17.26-9.89-3.69-2.4-6.67-2.87-10.65-.51-3.71,2.2-8.02,3.4-12.13,4.87-1.42,.51-2.18,1.16-2.58,2.66-1.85,6.99-3.89,13.92-5.71,20.91-.47,1.78-1.21,2.37-3.08,2.36-9.75-.1-19.49-.05-29.38-.05-1.76-6.35-3.8-12.51-5.11-18.82-.95-4.59-2.86-7.22-7.65-8.41-4.09-1.01-7.83-3.41-11.79-5.01-.99-.4-2.5-.48-3.39,0-6.42,3.49-12.78,7.11-19.08,10.81-1.47,.86-2.36,.92-3.63-.38-6.41-6.55-12.9-13.02-19.43-19.45-1.19-1.17-1.25-2.03-.43-3.44,3.73-6.38,7.39-12.81,10.95-19.29,.43-.79,.49-2.09,.16-2.93-2.07-5.22-4.43-10.33-6.42-15.58-.68-1.81-1.6-2.67-3.4-3.14-6.42-1.67-12.81-3.48-19.21-5.24-1.12-.31-2.24-.67-3.39-1.02Zm66.2-15.9c0,22.95,18.66,41.63,41.55,41.58,22.82-.05,41.41-18.63,41.45-41.44,.04-22.93-18.57-41.54-41.56-41.56-22.79-.02-41.43,18.61-41.44,41.42Z"/>
  </g>
</svg>