<?xml version="1.0" encoding="UTF-8"?>
<svg id="Layer_2" data-name="Layer 2" xmlns="http://www.w3.org/2000/svg" viewBox="0 0 868.95 547.47">
  <defs>
    <style>
      .cls-1 {
        fill: #fea411;
      }

      .cls-2 {
        fill: #df6f08;
      }

      .cls-3 {
        fill: #fdfdfd;
      }

      .cls-4 {
        fill: #1e2538;
      }

      .cls-5 {
        fill: #2fcf53;
      }
    </style>
  </defs>
  <g id="Layer_1-2" data-name="Layer 1">
    <g>
      <path class="cls-4" d="M74.22,20.44c2.14-8.87,7.06-15.48,15.55-19.2,3.46-1,7.03-1.07,10.56-1.24,1.62,.06,3.27,.17,4.93,.17,98.97,0,197.95-.02,296.92-.03,129.81,0,259.62,0,389.43,.02,4.49,0,8.98,.33,13.47,.51,6.06,2.32,9.31,7.05,11.2,12.96,0,160.77-.01,321.56-.04,482.34,0,2.14,.44,4.34-.54,6.41-3.33-.04-6.66-.12-9.99-.12-204.08,0-408.16,0-612.23,0-39.65,0-79.3,.03-118.95,.04-.13-2.49-.36-4.97-.36-7.46-.03-117.48-.04-234.97-.04-352.45,0-40.65,.05-81.31,.08-121.96ZM444.91,466.94c112.3,0,224.6-.03,336.9,.11,4.58,0,5.68-1.14,5.68-5.69-.13-140.46-.11-280.92-.11-421.38,0-9.67-1.87-11.49-11.72-11.49-219.43,0-438.87,0-658.3,0-2.33,0-4.69-.19-6.99,.06-4.32,.46-7.05,2.73-7.27,7.34-.08,1.66-.05,3.33-.05,5,0,140.13,.03,280.25-.13,420.38,0,5.07,1.54,5.78,6.1,5.77,111.97-.13,223.93-.1,335.9-.1Z"/>
      <path class="cls-3" d="M74.54,502.31c39.65-.01,79.3-.04,118.95-.04,204.08,0,408.16,0,612.23,0,3.33,0,6.66,.08,9.99,.12,15.13,.1,30.25,.17,45.37,.31,2.64,.02,5.34-.37,7.87,.78-.03,7.66-.05,15.33-.08,22.99-1.66-.03-3.33-.09-4.99-.09-285.77,0-571.54,0-857.32-.01-2,0-3.99-.09-5.99-.14-.05-5.81,.15-11.63-.24-17.42-.3-4.44,1.26-5.69,5.62-5.65,20.58,.2,41.17,.09,61.76,.1,2.32,0,4.66,.16,6.83-.95Zm360.22,11.9c-15.47,0-30.95,.02-46.42-.02-2.64,0-5.06-.11-5.15,3.63-.09,3.83,2.2,4.28,5.19,4.27,30.61-.03,61.23-.04,91.84,0,2.9,0,4.87-.65,4.9-4.06,.03-3.56-2.12-3.86-4.94-3.85-15.14,.07-30.28,.03-45.42,.03Z"/>
      <path class="cls-4" d="M.57,526.22c2,.05,3.99,.14,5.99,.14,285.77,0,571.54,0,857.32,.01,1.66,0,3.33,.06,4.99,.09-2.33,9.03-9.36,12.69-17.43,14.85-5.39,1.45-10.94,2.32-16.42,3.45-26.56,2.53-53.2,2.54-79.85,2.54-242.3-.06-484.59-.04-726.89-.03-1.99,0-3.99,.13-5.98,.19-9.15-1.17-14.86-6.95-19.33-14.41-.91-1.52-1.92-2.99-2.88-4.48,.13-.79-.53-1.74,.48-2.35Z"/>
      <path class="cls-3" d="M444.91,466.94c-111.97,0-223.93-.03-335.9,.1-4.56,0-6.11-.7-6.1-5.77,.16-140.13,.13-280.25,.13-420.38,0-1.67-.03-3.33,.05-5,.21-4.61,2.95-6.88,7.27-7.34,2.31-.25,4.66-.06,6.99-.06,219.43,0,438.87,0,658.3,0,9.86,0,11.72,1.81,11.72,11.49,0,140.46-.02,280.92,.11,421.38,0,4.55-1.1,5.7-5.68,5.69-112.3-.14-224.6-.11-336.9-.11ZM149.19,205.21c-.69,40.47,32.97,74.88,74.46,74.92,42.63,.03,75.16-34.12,75.45-74.86,.29-41.67-33.98-75.71-76.1-75.16-41.12,.53-74.3,34.1-73.8,75.11Zm384.53,5.29v-.03c60.81,0,121.62,0,182.43-.01,5.91,0,6.94-1.09,7-6.98,.01-1.33,0-2.67,0-4,0-7.13-.87-7.98-8.09-7.98-120.62,0-241.24,0-361.86,0-1.33,0-2.67,.09-4-.02-3.91-.32-5.37,1.97-5.75,5.35-.15,1.32-.06,2.66-.06,4-.02,9.37,.27,9.67,9.38,9.67,60.31,0,120.62,0,180.93,0Zm-65.51,206.87c27.66,0,55.32,0,82.98,0,12.1,0,12.33-.33,11.88-12.71-.14-3.9-1.62-5.95-5.63-5.91-1.83,.02-3.67-.05-5.5-.05-55.49,0-110.98,0-166.46,0q-11.36,0-11.34,11.55c.01,6.67,.44,7.11,7.1,7.11,28.99,0,57.99,0,86.98,0Zm-35.5-74.8v.03c22.32,0,44.64,0,66.95,0,6.72,0,7.36-.68,7.4-7.49,0-1,.02-2,.02-3-.02-7.42-.49-7.9-7.98-7.9-43.14,0-86.27,0-129.41,0q-11.6,0-11.48,11.43c.06,5.91,1.04,6.92,7.05,6.92,22.48,.02,44.97,0,67.45,0Zm104.5,28.55c36.8,0,73.61-.03,110.41,.04,3.49,0,6.18-.9,6.26-4.69,.08-3.87-2.66-4.75-6.12-4.75-73.61,.06-147.22,.07-220.83,.04-3.34,0-6.22,.48-6.26,4.55-.03,4,2.74,4.87,6.12,4.78,1.66-.04,3.33,.02,5,.02,35.14,0,70.28,0,105.42,0Zm.03-121.47c36.8,0,73.6-.02,110.4,.04,3.32,0,6.28-.28,6.27-4.39,0-4.08-3.01-4.63-6.3-4.48-1.16,.05-2.33,0-3.5,0-71.77,0-143.53,0-215.3,0-1.5,0-3,.04-4.49,.15-3.06,.21-3.87,2.36-3.69,4.88,.31,4.45,3.76,3.8,6.71,3.8,36.63,0,73.27,0,109.9,0Zm14.78-114.37v.02c17.82,0,35.65,.02,53.47-.02,1.64,0,3.52,.07,4.86-.66,1.72-.93,3.15-2.7,2.47-4.98-.97-3.28-3.56-3.95-6.67-3.94-25.32,.06-50.64,.05-75.96,.06-10.66,0-21.32,0-31.98-.06-3.35-.02-6.28,.95-6.55,4.62-.31,4.27,2.91,4.98,6.38,4.97,17.99-.02,35.98,0,53.97,0Zm-142.32-.29c17.33,0,34.65,0,51.98,0,2.83,0,5.67-.08,8.5,.02,3.17,.11,5.84-.57,5.95-4.33,.12-3.83-2.51-4.64-5.72-4.45-.17,0-.33,0-.5,0-39.98,0-79.97,0-119.95,0-1,0-2,.03-2.99,.12-2.33,.22-2.87,2.04-3.19,3.87-.36,2.06,.48,3.72,2.51,4.28,1.57,.43,3.28,.45,4.93,.45,19.49,.03,38.99,.02,58.48,.03Zm-202.46-57.27c6.4-.03,11.6-5.02,11.42-10.94-.16-5.34-5.94-10.96-11.11-10.81-6.11,.18-10.62,5.2-10.53,11.73,.09,6.23,3.99,10.06,10.22,10.03Zm-35.25,.31c6.1,0,11.24-5,11.23-10.91-.01-5.85-4.82-10.71-10.72-10.84-6.03-.13-11.22,4.89-11.24,10.88-.01,5.79,5.01,10.88,10.72,10.87Zm57.14-11.38c-.21,6.18,3.78,10.8,9.56,11.07,6.24,.3,11.63-4.26,11.98-10.12,.34-5.71-4.5-10.88-10.47-11.17-6.05-.3-10.86,4.14-11.07,10.22Z"/>
      <path class="cls-4" d="M434.76,514.21c15.14,0,30.28,.04,45.42-.03,2.82-.01,4.97,.28,4.94,3.85-.03,3.41-2,4.07-4.9,4.06-30.61-.04-61.23-.03-91.84,0-2.99,0-5.28-.44-5.19-4.27,.09-3.74,2.51-3.63,5.15-3.63,15.47,.03,30.95,.02,46.42,.02Z"/>
      <path class="cls-1" d="M149.19,205.21c-.49-41,32.68-74.57,73.8-75.11,42.12-.55,76.39,33.49,76.1,75.16-.29,40.74-32.82,74.89-75.45,74.86-41.48-.03-75.15-34.45-74.46-74.92Zm90.09-34.83c.19-1.49,.96-2.7-.5-3.05-1.23-.3-2.79-.67-3.64,.7-.78,1.25-1.32,2.68-1.81,4.09-4.38,12.45-8.68,24.92-13.08,37.36-3.58,10.13-7.31,20.2-10.8,30.36-.31,.9-1.67,2.74,.37,3.35,1.47,.44,3.39,.76,4.26-1.38,.31-.77,.69-1.51,.96-2.29,5.14-14.65,10.25-29.31,15.39-43.96,3.01-8.57,6.04-17.14,8.87-25.17Zm34.23,34.33c-9.55,5.03-18.17,9.88-27.08,14.12-3.43,1.63-3.74,3.39-2.62,6.53,2.85-1.43,5.48-2.74,8.1-4.07,8.07-4.12,16.15-8.22,24.21-12.37,3.48-1.79,4.56-5.81,1.85-7.24-11.3-5.93-22.72-11.65-34.1-17.45-1.98,4.19,.61,5.63,3.39,7.04,8.48,4.31,16.94,8.67,26.25,13.43Zm-69.91-20.52c-11.75,6.03-23.35,11.8-34.72,17.99-2.04,1.11-2.47,3.84,.56,5.43,10.65,5.56,21.3,11.11,31.9,16.77,2.7,1.44,2.79-.09,2.71-2-.07-1.66-1.02-2.47-2.57-3.21-5.21-2.48-10.39-5.06-15.36-7.98-3.68-2.16-8.08-3.26-11.45-6.87,8.82-4.56,17.15-8.85,25.46-13.17,2.36-1.23,5-2.36,3.46-6.97Z"/>
      <path class="cls-2" d="M533.72,210.5c-60.31,0-120.62,0-180.93,0-9.11,0-9.4-.29-9.38-9.67,0-1.33-.09-2.68,.06-4,.38-3.38,1.84-5.67,5.75-5.35,1.32,.11,2.66,.02,4,.02,120.62,0,241.24,0,361.86,0,7.22,0,8.08,.85,8.09,7.98,0,1.33,0,2.67,0,4-.06,5.88-1.09,6.97-7,6.98-60.81,.02-121.62,.01-182.43,.01v.03Z"/>
      <path class="cls-1" d="M468.21,417.37c-28.99,0-57.99,0-86.98,0-6.66,0-7.08-.43-7.1-7.11q-.02-11.55,11.34-11.55c55.49,0,110.98,0,166.46,0,1.83,0,3.67,.07,5.5,.05,4.01-.05,5.49,2,5.63,5.91,.45,12.37,.22,12.71-11.88,12.71-27.66,0-55.32,0-82.98,0Z"/>
      <path class="cls-5" d="M432.71,342.57c-22.48,0-44.97,.01-67.45,0-6,0-6.98-1.02-7.05-6.92q-.12-11.43,11.48-11.43c43.14,0,86.27,0,129.41,0,7.49,0,7.96,.47,7.98,7.9,0,1-.01,2-.02,3-.04,6.81-.68,7.48-7.4,7.49-22.32,.01-44.64,0-66.95,0v-.03Z"/>
      <path class="cls-5" d="M537.22,371.12c-35.14,0-70.28,0-105.42,0-1.67,0-3.33-.06-5-.02-3.38,.09-6.16-.78-6.12-4.78,.04-4.08,2.92-4.55,6.26-4.55,73.61,.02,147.22,.01,220.83-.04,3.47,0,6.2,.88,6.12,4.75-.08,3.79-2.77,4.69-6.26,4.69-36.8-.07-73.61-.04-110.41-.04Z"/>
      <path class="cls-5" d="M537.25,249.65c-36.63,0-73.27,0-109.9,0-2.95,0-6.4,.65-6.71-3.8-.18-2.52,.63-4.67,3.69-4.88,1.49-.1,2.99-.14,4.49-.15,71.77,0,143.53,0,215.3,0,1.17,0,2.33,.04,3.5,0,3.29-.15,6.29,.41,6.3,4.48,0,4.11-2.95,4.4-6.27,4.39-36.8-.06-73.6-.04-110.4-.04Z"/>
      <path class="cls-1" d="M552.03,135.28c-17.99,0-35.98,0-53.97,0-3.48,0-6.7-.7-6.38-4.97,.27-3.67,3.2-4.64,6.55-4.62,10.66,.05,21.32,.06,31.98,.06,25.32,0,50.64,0,75.96-.06,3.11,0,5.7,.67,6.67,3.94,.68,2.28-.75,4.04-2.47,4.98-1.35,.73-3.22,.65-4.86,.66-17.82,.04-35.65,.02-53.47,.02v-.02Z"/>
      <path class="cls-5" d="M409.71,134.99c-19.49,0-38.99,0-58.48-.02-1.65,0-3.36-.02-4.93-.45-2.03-.55-2.87-2.22-2.51-4.28,.32-1.83,.85-3.65,3.19-3.87,.99-.09,1.99-.12,2.99-.12,39.98,0,79.97,0,119.95,0,.17,0,.33,0,.5,0,3.21-.19,5.84,.62,5.72,4.45-.11,3.76-2.78,4.43-5.95,4.33-2.83-.09-5.66-.02-8.5-.02-17.33,0-34.65,0-51.98,0Z"/>
      <path class="cls-1" d="M207.25,77.72c-6.23,.03-10.13-3.8-10.22-10.03-.09-6.53,4.42-11.55,10.53-11.73,5.17-.15,10.95,5.47,11.11,10.81,.18,5.93-5.02,10.91-11.42,10.94Z"/>
      <path class="cls-2" d="M172,78.03c-5.71,0-10.73-5.09-10.72-10.87,.01-5.99,5.2-11.01,11.24-10.88,5.9,.13,10.7,4.99,10.72,10.84,.01,5.91-5.13,10.9-11.23,10.91Z"/>
      <path class="cls-2" d="M229.14,66.65c.2-6.07,5.01-10.51,11.07-10.22,5.97,.29,10.81,5.46,10.47,11.17-.35,5.87-5.74,10.42-11.98,10.12-5.78-.28-9.77-4.89-9.56-11.07Z"/>
      <path class="cls-3" d="M239.28,170.38c-2.83,8.03-5.86,16.6-8.87,25.17-5.14,14.65-10.25,29.31-15.39,43.96-.27,.78-.65,1.52-.96,2.29-.87,2.14-2.78,1.82-4.26,1.38-2.04-.6-.67-2.45-.37-3.35,3.5-10.16,7.22-20.23,10.8-30.36,4.4-12.44,8.7-24.91,13.08-37.36,.49-1.41,1.03-2.84,1.81-4.09,.86-1.37,2.42-1,3.64-.7,1.46,.36,.69,1.56,.5,3.05Z"/>
      <path class="cls-3" d="M273.52,204.71c-9.31-4.77-17.77-9.12-26.25-13.43-2.78-1.42-5.37-2.85-3.39-7.04,11.38,5.8,22.79,11.52,34.1,17.45,2.71,1.42,1.62,5.44-1.85,7.24-8.06,4.15-16.13,8.26-24.21,12.37-2.62,1.33-5.25,2.64-8.1,4.07-1.11-3.14-.8-4.9,2.62-6.53,8.91-4.24,17.53-9.09,27.08-14.12Z"/>
      <path class="cls-3" d="M203.61,184.19c1.53,4.61-1.1,5.74-3.46,6.97-8.31,4.33-16.64,8.61-25.46,13.17,3.38,3.61,7.77,4.7,11.45,6.87,4.97,2.92,10.15,5.5,15.36,7.98,1.56,.74,2.51,1.54,2.57,3.21,.08,1.92-.01,3.45-2.71,2-10.6-5.66-21.25-11.22-31.9-16.77-3.03-1.58-2.61-4.32-.56-5.43,11.37-6.19,22.97-11.96,34.72-17.99Z"/>
    </g>
  </g>
</svg>